<svg width="113" height="139" viewBox="0 0 113 139" fill="none" xmlns="http://www.w3.org/2000/svg">
<path d="M62.921 34.3366C65.935 31.3901 70.767 31.4449 73.7135 34.459L105.894 67.3775C108.841 70.3916 108.786 75.2236 105.772 78.1701L49.3085 133.368C46.2944 136.315 41.4625 136.26 38.5159 133.246L6.3351 100.327C3.3886 97.3133 3.44335 92.4813 6.45741 89.5348L62.921 34.3366Z" fill="#0BBF5C"/>
<g filter="url(#filter0_d_239_61)">
<path d="M62.921 5.33512C65.935 2.38861 70.767 2.44337 73.7135 5.45743L105.894 38.376C108.841 41.3901 108.786 46.2221 105.772 49.1686L49.3085 104.367C46.2944 107.313 41.4625 107.258 38.5159 104.244L6.3351 71.3258C3.3886 68.3118 3.44335 63.4798 6.45741 60.5333L62.921 5.33512Z" fill="#1A7FD4"/>
</g>
<path d="M61.5764 36.2248C60.3953 35.0216 60.4131 33.0888 61.6162 31.9077L67.0623 26.561C68.2654 25.3798 70.1983 25.3976 71.3794 26.6008L91.095 46.683C92.2761 47.8861 92.2583 49.8189 91.0552 51.0001L85.6091 56.3468C84.406 57.5279 82.4731 57.5101 81.292 56.307L61.5764 36.2248Z" fill="white"/>
<path d="M36.7834 43.8831C35.6023 42.68 35.6201 40.7471 36.8232 39.566L42.2693 34.2193C43.4724 33.0382 45.4053 33.056 46.5864 34.2591L74.3303 62.5189C75.5115 63.7221 75.4937 65.6549 74.2906 66.8361L68.8445 72.1827C67.6413 73.3639 65.7085 73.3461 64.5274 72.143L36.7834 43.8831Z" fill="white"/>
<path d="M33.6663 73.0381C32.4851 71.8349 32.5029 69.9021 33.706 68.7209L39.1521 63.3743C40.3553 62.1931 42.2881 62.2109 43.4692 63.414L58.8179 79.0481C59.999 80.2512 59.9812 82.1841 58.7781 83.3652L53.332 88.7119C52.1289 89.893 50.196 89.8752 49.0149 88.6721L33.6663 73.0381Z" fill="white"/>
<defs>
<filter id="filter0_d_239_61" x="0.160645" y="3.16058" width="111.908" height="111.381" filterUnits="userSpaceOnUse" color-interpolation-filters="sRGB">
<feFlood flood-opacity="0" result="BackgroundImageFix"/>
<feColorMatrix in="SourceAlpha" type="matrix" values="0 0 0 0 0 0 0 0 0 0 0 0 0 0 0 0 0 0 127 0" result="hardAlpha"/>
<feOffset dy="4"/>
<feGaussianBlur stdDeviation="2"/>
<feComposite in2="hardAlpha" operator="out"/>
<feColorMatrix type="matrix" values="0 0 0 0 0 0 0 0 0 0 0 0 0 0 0 0 0 0 0.25 0"/>
<feBlend mode="normal" in2="BackgroundImageFix" result="effect1_dropShadow_239_61"/>
<feBlend mode="normal" in="SourceGraphic" in2="effect1_dropShadow_239_61" result="shape"/>
</filter>
</defs>
</svg>
