<svg width="16" xmlns="http://www.w3.org/2000/svg" height="16" id="screenshot-4821d583-d55b-8009-8006-55a3c2bdb2a9" viewBox="0 0 16 16" xmlns:xlink="http://www.w3.org/1999/xlink" fill="none" version="1.1"><g id="shape-4821d583-d55b-8009-8006-55a3c2bdb2a9" width="16" height="16" rx="0" ry="0" style="fill: rgb(0, 0, 0);"><g id="shape-4821d583-d55b-8009-8006-55a3c2bdb2aa" style="display: none;"><g class="fills" id="fills-4821d583-d55b-8009-8006-55a3c2bdb2aa"><rect width="16" height="16" x="0" transform="matrix(1.000000, 0.000000, 0.000000, 1.000000, 0.000000, 0.000000)" style="fill: none;" ry="0" fill="none" rx="0" y="0"/></g></g><g id="shape-4821d583-d55b-8009-8006-55a3c2bdcc7e"><g class="fills" id="fills-4821d583-d55b-8009-8006-55a3c2bdcc7e"><path d="M12.563,5.250C12.471,6.521,11.528,7.500,10.500,7.500C9.472,7.500,8.528,6.521,8.438,5.250C8.344,3.928,9.262,3.000,10.500,3.000C11.738,3.000,12.656,3.952,12.563,5.250Z" fill="none" stroke-linejoin="round" style="fill: none;"/></g><g fill="none" stroke-linejoin="round" id="strokes-9278d5b2-1293-8090-8006-8a69499da3a3-4821d583-d55b-8009-8006-55a3c2bdcc7e" class="strokes"><g class="inner-stroke-shape"><defs><clipPath id="inner-stroke-render-3-4821d583-d55b-8009-8006-55a3c2bdcc7e-0"><use href="#stroke-shape-render-3-4821d583-d55b-8009-8006-55a3c2bdcc7e-0"/></clipPath><path d="M12.563,5.250C12.471,6.521,11.528,7.500,10.500,7.500C9.472,7.500,8.528,6.521,8.438,5.250C8.344,3.928,9.262,3.000,10.500,3.000C11.738,3.000,12.656,3.952,12.563,5.250Z" id="stroke-shape-render-3-4821d583-d55b-8009-8006-55a3c2bdcc7e-0" style="fill: none; stroke-width: 2; stroke: rgb(89, 89, 89); stroke-opacity: 1;"/></defs><use href="#stroke-shape-render-3-4821d583-d55b-8009-8006-55a3c2bdcc7e-0" clip-path="url('#inner-stroke-render-3-4821d583-d55b-8009-8006-55a3c2bdcc7e-0')"/></g></g></g><g id="shape-4821d583-d55b-8009-8006-55a3c2bdcc7f"><g class="fills" id="fills-4821d583-d55b-8009-8006-55a3c2bdcc7f"><path d="M10.500,9.500C8.463,9.500,6.505,10.512,6.014,12.482C5.949,12.742,6.113,13.000,6.381,13.000L14.620,13.000C14.887,13.000,15.050,12.742,14.986,12.482C14.495,10.480,12.537,9.500,10.500,9.500ZZ" fill="none" stroke-miterlimit="10" style="fill: none;"/></g><g fill="none" stroke-miterlimit="10" id="strokes-9278d5b2-1293-8090-8006-8a69499e9f0a-4821d583-d55b-8009-8006-55a3c2bdcc7f" class="strokes"><g class="inner-stroke-shape"><defs><clipPath id="inner-stroke-render-4-4821d583-d55b-8009-8006-55a3c2bdcc7f-0"><use href="#stroke-shape-render-4-4821d583-d55b-8009-8006-55a3c2bdcc7f-0"/></clipPath><path d="M10.500,9.500C8.463,9.500,6.505,10.512,6.014,12.482C5.949,12.742,6.113,13.000,6.381,13.000L14.620,13.000C14.887,13.000,15.050,12.742,14.986,12.482C14.495,10.480,12.537,9.500,10.500,9.500ZZ" id="stroke-shape-render-4-4821d583-d55b-8009-8006-55a3c2bdcc7f-0" style="fill: none; stroke-width: 2; stroke: rgb(89, 89, 89); stroke-opacity: 1;"/></defs><use href="#stroke-shape-render-4-4821d583-d55b-8009-8006-55a3c2bdcc7f-0" clip-path="url('#inner-stroke-render-4-4821d583-d55b-8009-8006-55a3c2bdcc7f-0')"/></g></g></g><g id="shape-4821d583-d55b-8009-8006-55a3c2bdcc80"><g class="fills" id="fills-4821d583-d55b-8009-8006-55a3c2bdcc80"><path d="M6.250,5.811C6.177,6.826,5.415,7.625,4.594,7.625C3.773,7.625,3.009,6.826,2.938,5.811C2.863,4.755,3.604,4.000,4.594,4.000C5.583,4.000,6.325,4.774,6.250,5.811Z" fill="none" stroke-linejoin="round" style="fill: none;"/></g><g fill="none" stroke-linejoin="round" id="strokes-9278d5b2-1293-8090-8006-8a69499ecf79-4821d583-d55b-8009-8006-55a3c2bdcc80" class="strokes"><g class="inner-stroke-shape"><defs><clipPath id="inner-stroke-render-5-4821d583-d55b-8009-8006-55a3c2bdcc80-0"><use href="#stroke-shape-render-5-4821d583-d55b-8009-8006-55a3c2bdcc80-0"/></clipPath><path d="M6.250,5.811C6.177,6.826,5.415,7.625,4.594,7.625C3.773,7.625,3.009,6.826,2.938,5.811C2.863,4.755,3.604,4.000,4.594,4.000C5.583,4.000,6.325,4.774,6.250,5.811Z" id="stroke-shape-render-5-4821d583-d55b-8009-8006-55a3c2bdcc80-0" style="fill: none; stroke-width: 2; stroke: rgb(89, 89, 89); stroke-opacity: 1;"/></defs><use href="#stroke-shape-render-5-4821d583-d55b-8009-8006-55a3c2bdcc80-0" clip-path="url('#inner-stroke-render-5-4821d583-d55b-8009-8006-55a3c2bdcc80-0')"/></g></g></g><g id="shape-4821d583-d55b-8009-8006-55a3c2bdcc81"><g class="fills" id="fills-4821d583-d55b-8009-8006-55a3c2bdcc81"><path d="M6.438,9.563C5.873,9.304,5.252,9.205,4.594,9.205C2.969,9.205,1.403,10.012,1.011,11.586C0.959,11.794,1.090,12.000,1.304,12.000L4.813,12.000" fill="none" stroke-miterlimit="10" style="fill: none;"/></g><g fill="none" stroke-miterlimit="10" id="strokes-9278d5b2-1293-8090-8006-8a69499f7877-4821d583-d55b-8009-8006-55a3c2bdcc81" class="strokes"><g class="stroke-shape"><path d="M6.438,9.563C5.873,9.304,5.252,9.205,4.594,9.205C2.969,9.205,1.403,10.012,1.011,11.586C0.959,11.794,1.090,12.000,1.304,12.000L4.813,12.000" style="fill: none; stroke-width: 1; stroke: rgb(89, 89, 89); stroke-opacity: 1;"/></g></g></g></g></svg>