<svg width="21.333" xmlns="http://www.w3.org/2000/svg" height="21.176" id="screenshot-3ca6834d-3d6f-801d-8006-62c471124738" viewBox="4611.333 2134.521 21.333 21.176" xmlns:xlink="http://www.w3.org/1999/xlink" fill="none" version="1.1"><g id="shape-3ca6834d-3d6f-801d-8006-62c471124738"><g class="fills" id="fills-3ca6834d-3d6f-801d-8006-62c471124738"><path d="M4626.000,2143.697L4628.298,2144.846C4628.524,2144.959,4628.667,2145.190,4628.667,2145.442L4628.667,2150.363C4628.667,2151.100,4628.070,2151.697,4627.333,2151.697L4616.667,2151.697C4615.930,2151.697,4615.333,2151.100,4615.333,2150.363L4615.333,2145.442C4615.333,2145.190,4615.476,2144.959,4615.702,2144.846L4618.000,2143.697M4626.000,2140.363L4626.000,2151.697M4616.667,2141.030L4621.404,2138.661C4621.779,2138.474,4622.221,2138.474,4622.596,2138.661L4627.333,2141.030M4618.000,2140.363L4618.000,2151.697" fill="none" stroke-linejoin="round" style="fill: none;"/></g><g fill="none" stroke-linejoin="round" id="strokes-dc604c1b-f940-8006-8006-9b765d9f3b2c-3ca6834d-3d6f-801d-8006-62c471124738" class="strokes"><g class="stroke-shape"><path d="M4626.000,2143.697L4628.298,2144.846C4628.524,2144.959,4628.667,2145.190,4628.667,2145.442L4628.667,2150.363C4628.667,2151.100,4628.070,2151.697,4627.333,2151.697L4616.667,2151.697C4615.930,2151.697,4615.333,2151.100,4615.333,2150.363L4615.333,2145.442C4615.333,2145.190,4615.476,2144.959,4615.702,2144.846L4618.000,2143.697M4626.000,2140.363L4626.000,2151.697M4616.667,2141.030L4621.404,2138.661C4621.779,2138.474,4622.221,2138.474,4622.596,2138.661L4627.333,2141.030M4618.000,2140.363L4618.000,2151.697" style="fill: none; stroke-width: 1.33333; stroke: rgb(89, 89, 89); stroke-opacity: 1;"/></g></g></g></svg>