<svg width="16" xmlns="http://www.w3.org/2000/svg" height="16" id="screenshot-4821d583-d55b-8009-8006-55a3c2bdb2a3" viewBox="0 0 16 16" xmlns:xlink="http://www.w3.org/1999/xlink" fill="none" version="1.1"><g id="shape-4821d583-d55b-8009-8006-55a3c2bdb2a3" width="16" height="16" rx="0" ry="0" style="fill: rgb(0, 0, 0);"><g id="shape-4821d583-d55b-8009-8006-55a3c2bdb2a4" style="display: none;"><g class="fills" id="fills-4821d583-d55b-8009-8006-55a3c2bdb2a4"><rect width="16" height="16" x="0" transform="matrix(1.000000, 0.000000, 0.000000, 1.000000, 0.000000, 0.000000)" style="fill: none;" ry="0" fill="none" rx="0" y="0"/></g></g><g id="shape-4821d583-d55b-8009-8006-55a3c2bdb2a5" rx="0" ry="0" style="fill: rgb(0, 0, 0);"><g id="shape-4821d583-d55b-8009-8006-55a3c2bdb2a6"><g class="fills" id="fills-4821d583-d55b-8009-8006-55a3c2bdb2a6"><path d="M5.000,4.500L7.000,4.500M5.000,8.000L11.000,8.000M5.000,10.000L11.000,10.000M5.000,12.000L7.000,12.000M4.000,14.500L12.000,14.500C12.552,14.500,13.000,14.052,13.000,13.500L13.000,2.500C13.000,1.948,12.552,1.500,12.000,1.500L4.000,1.500C3.448,1.500,3.000,1.948,3.000,2.500L3.000,13.500C3.000,14.052,3.448,14.500,4.000,14.500Z" fill="none" stroke-linejoin="round" style="fill: none;"/></g><g fill="none" stroke-linejoin="round" id="strokes-22cc1fe2-384d-8019-8006-8a696c1613dd-4821d583-d55b-8009-8006-55a3c2bdb2a6" class="strokes"><g class="stroke-shape"><path d="M5.000,4.500L7.000,4.500M5.000,8.000L11.000,8.000M5.000,10.000L11.000,10.000M5.000,12.000L7.000,12.000M4.000,14.500L12.000,14.500C12.552,14.500,13.000,14.052,13.000,13.500L13.000,2.500C13.000,1.948,12.552,1.500,12.000,1.500L4.000,1.500C3.448,1.500,3.000,1.948,3.000,2.500L3.000,13.500C3.000,14.052,3.448,14.500,4.000,14.500Z" style="fill: none; stroke-width: 1; stroke: rgb(89, 89, 89); stroke-opacity: 1;"/></g></g></g><g id="shape-4821d583-d55b-8009-8006-55a3c2bdb2a7"><g class="fills" id="fills-4821d583-d55b-8009-8006-55a3c2bdb2a7"><ellipse cx="11" cy="4.5" rx="0.25" ry="0.25" transform="matrix(1.000000, 0.000000, 0.000000, 1.000000, 0.000000, 0.000000)" style="fill: rgb(89, 89, 89);"/></g><g id="strokes-22cc1fe2-384d-8019-8006-8a696c17163a-4821d583-d55b-8009-8006-55a3c2bdb2a7" class="strokes"><g class="inner-stroke-shape" transform="matrix(1.000000, 0.000000, 0.000000, 1.000000, 0.000000, 0.000000)"><defs><clipPath id="inner-stroke-render-5-4821d583-d55b-8009-8006-55a3c2bdb2a7-0"><use href="#stroke-shape-render-5-4821d583-d55b-8009-8006-55a3c2bdb2a7-0"/></clipPath><ellipse cx="11" cy="4.5" rx="0.25" ry="0.25" id="stroke-shape-render-5-4821d583-d55b-8009-8006-55a3c2bdb2a7-0" style="fill: none; stroke-width: 1; stroke: rgb(89, 89, 89); stroke-opacity: 1;"/></defs><use href="#stroke-shape-render-5-4821d583-d55b-8009-8006-55a3c2bdb2a7-0" clip-path="url('#inner-stroke-render-5-4821d583-d55b-8009-8006-55a3c2bdb2a7-0')"/></g></g></g></g></g></svg>