<svg width="14" xmlns="http://www.w3.org/2000/svg" height="17" id="screenshot-cf475cf3-0720-80d1-8006-8a87cad1ed91" viewBox="15191 2411 14 17" xmlns:xlink="http://www.w3.org/1999/xlink" fill="none" version="1.1"><g id="shape-cf475cf3-0720-80d1-8006-8a87cad1ed91" style="opacity: 1;"><g class="fills" id="fills-cf475cf3-0720-80d1-8006-8a87cad1ed91"><path d="M15202.590,2417.000L15201.000,2417.000L15201.000,2412.000C15201.000,2411.450,15200.550,2411.000,15200.000,2411.000L15196.000,2411.000C15195.450,2411.000,15195.000,2411.450,15195.000,2412.000L15195.000,2417.000L15193.410,2417.000C15192.520,2417.000,15192.070,2418.080,15192.700,2418.710L15197.290,2423.300C15197.680,2423.690,15198.310,2423.690,15198.700,2423.300L15203.290,2418.710C15203.920,2418.080,15203.480,2417.000,15202.590,2417.000ZZZM15191.000,2427.000C15191.000,2427.550,15191.450,2428.000,15192.000,2428.000L15204.000,2428.000C15204.550,2428.000,15205.000,2427.550,15205.000,2427.000C15205.000,2426.450,15204.550,2426.000,15204.000,2426.000L15192.000,2426.000C15191.450,2426.000,15191.000,2426.450,15191.000,2427.000ZZZ" fill-rule="nonzero" style="fill: rgb(255, 255, 255); fill-opacity: 1;"/></g></g></svg>