<svg width="12" xmlns="http://www.w3.org/2000/svg" height="13.333" id="screenshot-ed13dd46-afa5-809e-8006-4b927d74c071" viewBox="1574 6609.343 12 13.333" xmlns:xlink="http://www.w3.org/1999/xlink" fill="none" version="1.1"><g id="shape-ed13dd46-afa5-809e-8006-4b927d74c071"><g class="fills" id="fills-ed13dd46-afa5-809e-8006-4b927d74c071"><path d="M1580.000,6622.677C1577.171,6622.677,1575.757,6622.677,1574.879,6621.700C1574.000,6620.725,1574.000,6619.153,1574.000,6616.010C1574.000,6612.867,1574.000,6611.296,1574.879,6610.319C1575.757,6609.343,1577.172,6609.343,1580.000,6609.343C1582.828,6609.343,1584.243,6609.343,1585.121,6610.319C1586.000,6611.297,1586.000,6612.867,1586.000,6616.010C1586.000,6619.153,1586.000,6620.724,1585.121,6621.700C1584.243,6622.676,1582.828,6622.677,1580.000,6622.677ZM1582.000,6612.010L1578.000,6612.010C1577.690,6612.010,1577.535,6612.010,1577.408,6612.044C1577.063,6612.137,1576.794,6612.406,1576.701,6612.751C1576.667,6612.879,1576.667,6613.034,1576.667,6613.343C1576.667,6613.653,1576.667,6613.808,1576.701,6613.935C1576.793,6614.280,1577.063,6614.549,1577.407,6614.642C1577.536,6614.677,1577.691,6614.677,1578.000,6614.677L1582.000,6614.677C1582.310,6614.677,1582.465,6614.677,1582.592,6614.643C1582.937,6614.550,1583.206,6614.281,1583.299,6613.936C1583.333,6613.807,1583.333,6613.653,1583.333,6613.343C1583.333,6613.034,1583.333,6612.879,1583.299,6612.751C1583.207,6612.407,1582.937,6612.137,1582.593,6612.045C1582.465,6612.010,1582.309,6612.010,1582.000,6612.010ZM1578.000,6616.677C1578.000,6617.045,1577.702,6617.343,1577.333,6617.343C1576.965,6617.343,1576.667,6617.045,1576.667,6616.677C1576.667,6616.308,1576.965,6616.010,1577.333,6616.010C1577.702,6616.010,1578.000,6616.308,1578.000,6616.677ZM1580.000,6617.343C1580.368,6617.343,1580.667,6617.045,1580.667,6616.677C1580.667,6616.308,1580.368,6616.010,1580.000,6616.010C1579.632,6616.010,1579.333,6616.308,1579.333,6616.677C1579.333,6617.045,1579.632,6617.343,1580.000,6617.343ZM1583.333,6616.677C1583.333,6617.045,1583.035,6617.343,1582.667,6617.343C1582.298,6617.343,1582.000,6617.045,1582.000,6616.677C1582.000,6616.308,1582.298,6616.010,1582.667,6616.010C1583.035,6616.010,1583.333,6616.308,1583.333,6616.677ZM1582.667,6620.010C1583.035,6620.010,1583.333,6619.712,1583.333,6619.343C1583.333,6618.975,1583.035,6618.677,1582.667,6618.677C1582.298,6618.677,1582.000,6618.975,1582.000,6619.343C1582.000,6619.712,1582.298,6620.010,1582.667,6620.010ZM1580.667,6619.343C1580.667,6619.712,1580.368,6620.010,1580.000,6620.010C1579.632,6620.010,1579.333,6619.712,1579.333,6619.343C1579.333,6618.975,1579.632,6618.677,1580.000,6618.677C1580.368,6618.677,1580.667,6618.975,1580.667,6619.343ZM1577.333,6620.010C1577.702,6620.010,1578.000,6619.712,1578.000,6619.343C1578.000,6618.975,1577.702,6618.677,1577.333,6618.677C1576.965,6618.677,1576.667,6618.975,1576.667,6619.343C1576.667,6619.712,1576.965,6620.010,1577.333,6620.010Z" fill-rule="evenodd" clip-rule="evenodd" style="fill: rgb(90, 148, 216); fill-opacity: 1;"/></g></g></svg>