<svg width="14" xmlns="http://www.w3.org/2000/svg" height="14" id="screenshot-ed13dd46-afa5-809e-8006-47bd1c440c12" viewBox="1074 7689.038 14 14" xmlns:xlink="http://www.w3.org/1999/xlink" fill="none" version="1.1"><g id="shape-ed13dd46-afa5-809e-8006-47bd1c440c12"><g class="fills" id="fills-ed13dd46-afa5-809e-8006-47bd1c440c12"><path d="M1087.000,7697.038L1082.000,7697.038L1082.000,7702.038C1082.000,7702.590,1081.552,7703.038,1081.000,7703.038C1080.448,7703.038,1080.000,7702.590,1080.000,7702.038L1080.000,7697.038L1075.000,7697.038C1074.448,7697.038,1074.000,7696.590,1074.000,7696.038C1074.000,7695.486,1074.448,7695.038,1075.000,7695.038L1080.000,7695.038L1080.000,7690.038C1080.000,7689.486,1080.448,7689.038,1081.000,7689.038C1081.552,7689.038,1082.000,7689.486,1082.000,7690.038L1082.000,7695.038L1087.000,7695.038C1087.552,7695.038,1088.000,7695.486,1088.000,7696.038C1088.000,7696.590,1087.552,7697.038,1087.000,7697.038Z" style="fill: rgb(90, 148, 216); fill-opacity: 1;"/></g></g></svg>