<svg width="19.5" xmlns="http://www.w3.org/2000/svg" height="18.759" id="screenshot-cf475cf3-0720-80d1-8006-8a853435caea" viewBox="13114.25 2279.25 19.5 18.759" xmlns:xlink="http://www.w3.org/1999/xlink" fill="none" version="1.1"><g id="shape-cf475cf3-0720-80d1-8006-8a853435caea"><g class="fills" id="fills-cf475cf3-0720-80d1-8006-8a853435caea"><path d="M13133.237,2282.288L13124.237,2279.288C13124.083,2279.237,13123.917,2279.237,13123.763,2279.288L13114.763,2282.288C13114.457,2282.391,13114.250,2282.677,13114.250,2283.000L13114.250,2290.500C13114.250,2290.914,13114.586,2291.250,13115.000,2291.250C13115.414,2291.250,13115.750,2290.914,13115.750,2290.500L13115.750,2284.041L13118.899,2285.090C13117.157,2287.904,13118.023,2291.598,13120.835,2293.344C13119.147,2294.006,13117.689,2295.203,13116.622,2296.840C13116.471,2297.065,13116.452,2297.353,13116.574,2297.595C13116.695,2297.837,13116.937,2297.995,13117.207,2298.008C13117.477,2298.021,13117.734,2297.888,13117.878,2297.660C13119.291,2295.492,13121.522,2294.250,13124.000,2294.250C13126.478,2294.250,13128.709,2295.492,13130.122,2297.660C13130.351,2298.000,13130.810,2298.093,13131.154,2297.869C13131.497,2297.645,13131.597,2297.187,13131.378,2296.840C13130.311,2295.203,13128.847,2294.006,13127.165,2293.344C13129.974,2291.598,13130.840,2287.908,13129.101,2285.094L13133.237,2283.716C13133.544,2283.614,13133.750,2283.328,13133.750,2283.005C13133.750,2282.682,13133.544,2282.395,13133.237,2282.288ZZM13128.500,2288.250C13128.501,2290.203,13127.241,2291.934,13125.382,2292.534C13123.523,2293.134,13121.490,2292.466,13120.348,2290.881C13119.207,2289.296,13119.218,2287.156,13120.377,2285.583L13123.763,2286.708C13123.917,2286.759,13124.083,2286.759,13124.237,2286.708L13127.623,2285.583C13128.193,2286.355,13128.500,2287.290,13128.500,2288.250ZM13124.000,2285.210L13117.372,2283.000L13124.000,2280.790L13130.628,2283.000Z" style="fill: rgb(90, 148, 216); fill-opacity: 1;"/></g></g></svg>